<?xml version="1.0" encoding="iso-8859-1"?>
<!-- Generator: Adobe Illustrator 18.0.0, SVG Export Plug-In . SVG Version: 6.00 Build 0)  -->
<!DOCTYPE svg PUBLIC "-//W3C//DTD SVG 1.1//EN" "http://www.w3.org/Graphics/SVG/1.1/DTD/svg11.dtd">
<svg version="1.1" id="Capa_1" xmlns="http://www.w3.org/2000/svg" xmlns:xlink="http://www.w3.org/1999/xlink" x="0px" y="0px"
	 viewBox="-25 0 200 200" width="50px" style="enable-background:new 0 0 203.968 203.968;" xml:space="preserve">
<g>
	<path style="fill:#FB5252;" d="M79.125,173.622c4.142,0,7.5-3.358,7.5-7.5V90.799c0-4.142-3.358-7.5-7.5-7.5s-7.5,3.358-7.5,7.5
		v75.323C71.625,170.264,74.983,173.622,79.125,173.622z"/>
	<path style="fill:#FB5252;" d="M101.984,173.622c4.142,0,7.5-3.358,7.5-7.5V90.799c0-4.142-3.358-7.5-7.5-7.5s-7.5,3.358-7.5,7.5
		v75.323C94.484,170.264,97.842,173.622,101.984,173.622z"/>
	<path style="fill:#FB5252;" d="M124.843,173.622c4.142,0,7.5-3.358,7.5-7.5V90.799c0-4.142-3.358-7.5-7.5-7.5s-7.5,3.358-7.5,7.5
		v75.323C117.343,170.264,120.7,173.622,124.843,173.622z"/>
	<path style="fill:#FB5252;" d="M162.881,52.765h-0.468V42.032c0-11.908-9.688-21.595-21.596-21.595h-4.006v-2.431
		C136.811,8.078,128.734,0,118.805,0H85.163c-9.929,0-18.006,8.078-18.006,18.006v2.431h-4.006
		c-11.908,0-21.596,9.688-21.596,21.595v10.733h-0.468c-4.142,0-7.5,3.358-7.5,7.5s3.358,7.5,7.5,7.5h0.468v114.607
		c0,11.908,9.688,21.595,21.596,21.595h77.666c11.908,0,21.596-9.688,21.596-21.595V67.765h0.468c4.142,0,7.5-3.358,7.5-7.5
		S167.023,52.765,162.881,52.765z M82.157,18.006c0-1.658,1.349-3.006,3.006-3.006h33.642c1.657,0,3.006,1.349,3.006,3.006v2.431
		H82.157V18.006z M56.555,42.032c0-3.637,2.959-6.595,6.596-6.595h77.666c3.637,0,6.596,2.958,6.596,6.595v10.733H56.555V42.032z
		 M147.412,182.373c0,3.637-2.959,6.595-6.596,6.595H63.151c-3.637,0-6.596-2.958-6.596-6.595V67.765h90.857V182.373z"/>
</g>
<g>
</g>
<g>
</g>
<g>
</g>
<g>
</g>
<g>
</g>
<g>
</g>
<g>
</g>
<g>
</g>
<g>
</g>
<g>
</g>
<g>
</g>
<g>
</g>
<g>
</g>
<g>
</g>
<g>
</g>
</svg>
