<svg height="30" viewBox="-3 -3 27.5 27.5" width="30" xmlns="http://www.w3.org/2000/svg"><g fill="#fb5252"><path d="m1.5 19c-.276 0-.5-.224-.5-.5v-15c0-.276.224-.5.5-.5s.5.224.5.5v15c0 .276-.224.5-.5.5z"/><path d="m3.5 10c-.104 0-.21-.033-.3-.1-.221-.166-.266-.479-.1-.7.067-.09 1.676-2.2 3.9-2.2 1.694 0 2.813.599 3.801 1.127.875.468 1.631.873 2.699.873 2.192 0 3.758-2.08 4.65-3.718-.698.397-1.59.718-2.65.718-2.207 0-3.347-1.14-4.354-2.146-.995-.995-1.854-1.854-3.646-1.854-2.224 0-3.587 1.782-3.6 1.8-.166.221-.479.266-.7.1s-.266-.479-.1-.7c.067-.09 1.681-2.2 4.4-2.2 2.207 0 3.347 1.14 4.354 2.146.995.995 1.854 1.854 3.646 1.854 2.224 0 3.587-1.782 3.6-1.8.147-.196.415-.257.632-.143s.32.368.242.601c-.021.064-.533 1.581-1.558 3.119-.612.918-1.282 1.653-1.991 2.185-.918.688-1.902 1.037-2.925 1.037-1.318 0-2.26-.504-3.171-.991-.97-.519-1.886-1.009-3.329-1.009-1.73 0-3.087 1.782-3.1 1.8-.098.131-.248.2-.4.2z"/></g></svg>