<svg viewBox="-25 -25 550 550" width="30px" xmlns="http://www.w3.org/2000/svg"><path fill="#FB5252" d="m506.513 124.12-118.634-118.634c-.001-.001-.003-.003-.005-.004-3.407-3.406-8.177-5.482-13.24-5.482-15.018 0-341.6 0-355.902 0-10.345 0-18.732 8.387-18.732 18.732v474.537c0 10.344 8.387 18.731 18.732 18.731h474.537c10.345 0 18.732-8.387 18.732-18.732v-355.902c-.001-4.968-1.974-9.732-5.488-13.246zm-350.415-86.657h199.805v110.823h-199.805zm244.352 437.074h-288.9v-157.602h288.9zm74.087 0h-36.623v-176.333c0-10.345-8.387-18.732-18.732-18.732h-326.364c-10.345 0-18.732 8.387-18.732 18.732v176.333h-36.623v-437.074h81.171v129.555c0 10.345 8.387 18.732 18.732 18.732h237.268c10.345 0 18.732-8.387 18.732-18.732v-103.064l81.171 81.171z"/><path fill="#FB5252" d="m309.514 55.015c-10.345 0-18.732 8.387-18.732 18.732v38.256c0 10.346 8.386 18.732 18.732 18.732 10.345 0 18.732-8.387 18.732-18.732v-38.256c0-10.345-8.387-18.732-18.732-18.732z"/></svg>