<?xml version="1.0" encoding="iso-8859-1"?>
<!-- Generator: Adobe Illustrator 18.0.0, SVG Export Plug-In . SVG Version: 6.00 Build 0)  -->
<!DOCTYPE svg PUBLIC "-//W3C//DTD SVG 1.1//EN" "http://www.w3.org/Graphics/SVG/1.1/DTD/svg11.dtd">
<svg version="1.1" id="Capa_1" xmlns="http://www.w3.org/2000/svg" xmlns:xlink="http://www.w3.org/1999/xlink" x="0px" y="0px"
	 viewBox="-25 -25 200 200" width="50px" style="enable-background:new 0 0 142.729 142.729;" xml:space="preserve">
<g>
	<path style="fill:#FB5252;" d="M120.557,77.365H22.173C9.946,77.365,0,87.312,0,99.538v0.296c0,12.226,9.946,22.173,22.173,22.173
		h98.384c12.227,0,22.173-9.947,22.173-22.173v-0.296C142.729,87.312,132.783,77.365,120.557,77.365z M127.729,99.834
		c0,3.955-3.218,7.173-7.173,7.173H22.173c-3.955,0-7.173-3.218-7.173-7.173v-0.296c0-3.955,3.218-7.173,7.173-7.173h98.384
		c3.955,0,7.173,3.218,7.173,7.173V99.834z"/>
	<path style="fill:#FB5252;" d="M120.557,20.723H22.173C9.946,20.723,0,30.669,0,42.896v0.296c0,12.226,9.946,22.173,22.173,22.173
		h98.384c12.227,0,22.173-9.947,22.173-22.173v-0.296C142.729,30.669,132.783,20.723,120.557,20.723z M127.729,43.192
		c0,3.955-3.218,7.173-7.173,7.173H22.173c-3.955,0-7.173-3.218-7.173-7.173v-0.296c0-3.955,3.218-7.173,7.173-7.173h98.384
		c3.955,0,7.173,3.218,7.173,7.173V43.192z"/>
</g>
<g>
</g>
<g>
</g>
<g>
</g>
<g>
</g>
<g>
</g>
<g>
</g>
<g>
</g>
<g>
</g>
<g>
</g>
<g>
</g>
<g>
</g>
<g>
</g>
<g>
</g>
<g>
</g>
<g>
</g>
</svg>
