<?xml version="1.0" encoding="iso-8859-1"?>
<!-- Generator: Adobe Illustrator 19.0.0, SVG Export Plug-In . SVG Version: 6.00 Build 0)  -->
<svg version="1.1" id="Capa_1" xmlns="http://www.w3.org/2000/svg" xmlns:xlink="http://www.w3.org/1999/xlink" x="0px" y="0px"
	 viewBox="0 0 393.216 393.216" width="35px" style="enable-background:new 0 0 393.216 393.216;" xml:space="preserve">
<g>
	<g>
		<circle cx="196.608" cy="33.28" r="7.68"/>
	</g>
</g>
<g>
	<g>
		<path fill="#FB5252" d="M319.488,56.32h-50.176v-4.608c0-12.8-11.776-23.552-26.112-23.552h-13.312C227.328,12.288,213.504,0,196.608,0
			s-30.72,12.288-33.28,28.16h-13.312c-14.336,0-26.112,10.24-26.112,23.552v4.608H73.728c-3.072,0-5.12,2.048-5.12,5.12v326.656
			c0.512,3.072,2.56,5.12,5.632,5.12h245.248c3.072,0,5.12-2.048,5.12-5.12V61.44C324.608,58.368,322.56,56.32,319.488,56.32z
			 M134.656,51.712c0-7.168,7.168-13.312,15.872-13.312h17.92c3.072,0,5.12-2.048,5.12-5.12c0-12.8,10.24-23.04,23.04-23.04
			s23.04,10.24,23.04,23.04c0,3.072,2.048,5.12,5.12,5.12h17.92c8.704,0,15.872,5.632,15.872,13.312v24.064H134.656V51.712z
			 M314.368,382.976H79.36V66.56h45.056v14.336c0,3.072,2.048,5.12,5.12,5.12h134.656c3.072,0,5.12-2.048,5.12-5.12V66.56h45.056
			V382.976z"/>
	</g>
</g>
<g>
	<g>
		<path fill="#FB5252" d="M263.68,139.264H129.536c-3.072,0-5.12,2.048-5.12,5.12c0,3.072,2.048,5.12,5.12,5.12h134.656
			c3.072,0,5.12-2.048,5.12-5.12C268.8,141.824,266.752,139.264,263.68,139.264z"/>
	</g>
</g>
<g>
	<g>
		<path fill="#FB5252" d="M263.68,180.224H129.536c-3.072,0-5.12,2.048-5.12,5.12c0,3.072,2.048,5.12,5.12,5.12h134.656
			c3.072,0,5.12-2.048,5.12-5.12C268.8,182.784,266.752,180.224,263.68,180.224z"/>
	</g>
</g>
<g>
	<g>
		<path fill="#FB5252" d="M263.68,221.184H129.536c-3.072,0-5.12,2.048-5.12,5.12c0,3.072,2.048,5.12,5.12,5.12h134.656
			c3.072,0,5.12-2.048,5.12-5.12C268.8,223.744,266.752,221.184,263.68,221.184z"/>
	</g>
</g>
<g>
	<g>
		<path fill="#FB5252" d="M263.68,262.144H129.536c-3.072,0-5.12,2.048-5.12,5.12c0,3.072,2.048,5.12,5.12,5.12h134.656
			c3.072,0,5.12-2.048,5.12-5.12C268.8,264.704,266.752,262.144,263.68,262.144z"/>
	</g>
</g>
<g>
	<g>
		<path fill="#FB5252" d="M263.68,303.104H129.536c-3.072,0-5.12,2.048-5.12,5.12s2.048,5.12,5.12,5.12h134.656c3.072,0,5.12-2.048,5.12-5.12
			C268.8,305.664,266.752,303.104,263.68,303.104z"/>
	</g>
</g>
<g>
</g>
<g>
</g>
<g>
</g>
<g>
</g>
<g>
</g>
<g>
</g>
<g>
</g>
<g>
</g>
<g>
</g>
<g>
</g>
<g>
</g>
<g>
</g>
<g>
</g>
<g>
</g>
<g>
</g>
</svg>
